<svg width="128" height="20" viewBox="0 0 118 20" fill="none" xmlns="http://www.w3.org/2000/svg">
<mask id="path-1-outside-1_102_900" maskUnits="userSpaceOnUse" x="-1" y="-1" width="120" height="22" fill="black">
<rect fill="white" x="-1" y="-1" width="120" height="22"/>
<path d="M10.166 19.864C15.35 19.864 19.67 15.688 19.67 9.928C19.67 4.168 15.35 0.135998 10.166 0.135998C4.838 0.135998 0.374001 4.168 0.374001 9.928C0.374001 15.688 4.838 19.864 10.166 19.864ZM42.791 19.864C47.975 19.864 52.295 15.688 52.295 9.928C52.295 4.168 47.975 0.135998 42.791 0.135998C37.463 0.135998 32.999 4.168 32.999 9.928C32.999 15.688 37.463 19.864 42.791 19.864ZM108.041 19.864C113.225 19.864 117.545 15.688 117.545 9.928C117.545 4.168 113.225 0.135998 108.041 0.135998C102.713 0.135998 98.249 4.168 98.249 9.928C98.249 15.688 102.713 19.864 108.041 19.864Z"/>
<path d="M75.416 19.864C80.6 19.864 84.92 15.688 84.92 9.928C84.92 4.168 80.6 0.135998 75.416 0.135998C70.088 0.135998 65.624 4.168 65.624 9.928C65.624 15.688 70.088 19.864 75.416 19.864Z"/>
</mask>
<path d="M10.166 20.864C15.9216 20.864 20.67 16.2207 20.67 9.928H18.67C18.67 15.1553 14.7784 18.864 10.166 18.864V20.864ZM20.67 9.928C20.67 3.61572 15.9023 -0.864002 10.166 -0.864002V1.136C14.7977 1.136 18.67 4.72028 18.67 9.928H20.67ZM10.166 -0.864002C4.31495 -0.864002 -0.625999 3.58693 -0.625999 9.928H1.374C1.374 4.74907 5.36106 1.136 10.166 1.136V-0.864002ZM-0.625999 9.928C-0.625999 16.2498 4.29531 20.864 10.166 20.864V18.864C5.38069 18.864 1.374 15.1262 1.374 9.928H-0.625999ZM42.791 20.864C48.5466 20.864 53.295 16.2207 53.295 9.928H51.295C51.295 15.1553 47.4034 18.864 42.791 18.864V20.864ZM53.295 9.928C53.295 3.61572 48.5273 -0.864002 42.791 -0.864002V1.136C47.4227 1.136 51.295 4.72028 51.295 9.928H53.295ZM42.791 -0.864002C36.9399 -0.864002 31.999 3.58693 31.999 9.928H33.999C33.999 4.74907 37.9861 1.136 42.791 1.136V-0.864002ZM31.999 9.928C31.999 16.2498 36.9203 20.864 42.791 20.864V18.864C38.0057 18.864 33.999 15.1262 33.999 9.928H31.999ZM75.416 20.864C81.1716 20.864 85.92 16.2207 85.92 9.928H83.92C83.92 15.1553 80.0284 18.864 75.416 18.864V20.864ZM85.92 9.928C85.92 3.61572 81.1523 -0.864002 75.416 -0.864002V1.136C80.0477 1.136 83.92 4.72028 83.92 9.928H85.92ZM75.416 -0.864002C69.5649 -0.864002 64.624 3.58693 64.624 9.928H66.624C66.624 4.74907 70.6111 1.136 75.416 1.136V-0.864002ZM64.624 9.928C64.624 16.2498 69.5453 20.864 75.416 20.864V18.864C70.6307 18.864 66.624 15.1262 66.624 9.928H64.624ZM108.041 20.864C113.797 20.864 118.545 16.2207 118.545 9.928H116.545C116.545 15.1553 112.653 18.864 108.041 18.864V20.864ZM118.545 9.928C118.545 3.61572 113.777 -0.864002 108.041 -0.864002V1.136C112.673 1.136 116.545 4.72028 116.545 9.928H118.545ZM108.041 -0.864002C102.19 -0.864002 97.249 3.58693 97.249 9.928H99.249C99.249 4.74907 103.236 1.136 108.041 1.136V-0.864002ZM97.249 9.928C97.249 16.2498 102.17 20.864 108.041 20.864V18.864C103.256 18.864 99.249 15.1262 99.249 9.928H97.249Z" fill="white" mask="url(#path-1-outside-1_102_900)"/>
</svg>
