<svg width="167" height="386" viewBox="0 0 167 386" fill="none" xmlns="http://www.w3.org/2000/svg">
<g opacity="0.4">
<mask id="path-1-outside-1_104_782" maskUnits="userSpaceOnUse" x="15" y="147" width="137" height="133" fill="black">
<rect fill="white" x="15" y="147" width="137" height="133"/>
<path d="M148.008 201.968H95.5915V150.128H71.3995V201.968H18.9835V224.72H71.3995V276.272H95.5915V224.72H148.008V201.968Z"/>
</mask>
<path d="M148.008 201.968H95.5915V150.128H71.3995V201.968H18.9835V224.72H71.3995V276.272H95.5915V224.72H148.008V201.968Z" fill="black" fill-opacity="0.13"/>
<path d="M148.008 201.968H151.008V198.968H148.008V201.968ZM95.5915 201.968H92.5915V204.968H95.5915V201.968ZM95.5915 150.128H98.5915V147.128H95.5915V150.128ZM71.3995 150.128V147.128H68.3995V150.128H71.3995ZM71.3995 201.968V204.968H74.3995V201.968H71.3995ZM18.9835 201.968V198.968H15.9835V201.968H18.9835ZM18.9835 224.72H15.9835V227.72H18.9835V224.72ZM71.3995 224.72H74.3995V221.72H71.3995V224.72ZM71.3995 276.272H68.3995V279.272H71.3995V276.272ZM95.5915 276.272V279.272H98.5915V276.272H95.5915ZM95.5915 224.72V221.72H92.5915V224.72H95.5915ZM148.008 224.72V227.72H151.008V224.72H148.008ZM148.008 198.968H95.5915V204.968H148.008V198.968ZM98.5915 201.968V150.128H92.5915V201.968H98.5915ZM95.5915 147.128H71.3995V153.128H95.5915V147.128ZM68.3995 150.128V201.968H74.3995V150.128H68.3995ZM71.3995 198.968H18.9835V204.968H71.3995V198.968ZM15.9835 201.968V224.72H21.9835V201.968H15.9835ZM18.9835 227.72H71.3995V221.72H18.9835V227.72ZM68.3995 224.72V276.272H74.3995V224.72H68.3995ZM71.3995 279.272H95.5915V273.272H71.3995V279.272ZM98.5915 276.272V224.72H92.5915V276.272H98.5915ZM95.5915 227.72H148.008V221.72H95.5915V227.72ZM151.008 224.72V201.968H145.008V224.72H151.008Z" fill="white" mask="url(#path-1-outside-1_104_782)"/>
</g>
<g opacity="0.3" filter="url(#filter0_f_104_782)">
<mask id="path-3-outside-2_104_782" maskUnits="userSpaceOnUse" x="114" y="85" width="40" height="38" fill="black">
<rect fill="white" x="114" y="85" width="40" height="38"/>
<path d="M150.127 100.992H137.023V88.032H130.975V100.992H117.871V106.68H130.975V119.568H137.023V106.68H150.127V100.992Z"/>
</mask>
<path d="M150.127 100.992H137.023V88.032H130.975V100.992H117.871V106.68H130.975V119.568H137.023V106.68H150.127V100.992Z" fill="black" fill-opacity="0.13"/>
<path d="M150.127 100.992H153.127V97.992H150.127V100.992ZM137.023 100.992H134.023V103.992H137.023V100.992ZM137.023 88.032H140.023V85.032H137.023V88.032ZM130.975 88.032V85.032H127.975V88.032H130.975ZM130.975 100.992V103.992H133.975V100.992H130.975ZM117.871 100.992V97.992H114.871V100.992H117.871ZM117.871 106.68H114.871V109.68H117.871V106.68ZM130.975 106.68H133.975V103.68H130.975V106.68ZM130.975 119.568H127.975V122.568H130.975V119.568ZM137.023 119.568V122.568H140.023V119.568H137.023ZM137.023 106.68V103.68H134.023V106.68H137.023ZM150.127 106.68V109.68H153.127V106.68H150.127ZM150.127 97.992H137.023V103.992H150.127V97.992ZM140.023 100.992V88.032H134.023V100.992H140.023ZM137.023 85.032H130.975V91.032H137.023V85.032ZM127.975 88.032V100.992H133.975V88.032H127.975ZM130.975 97.992H117.871V103.992H130.975V97.992ZM114.871 100.992V106.68H120.871V100.992H114.871ZM117.871 109.68H130.975V103.68H117.871V109.68ZM127.975 106.68V119.568H133.975V106.68H127.975ZM130.975 122.568H137.023V116.568H130.975V122.568ZM140.023 119.568V106.68H134.023V119.568H140.023ZM137.023 109.68H150.127V103.68H137.023V109.68ZM153.127 106.68V100.992H147.127V106.68H153.127Z" fill="white" mask="url(#path-3-outside-2_104_782)"/>
</g>
<g opacity="0.3" filter="url(#filter1_f_104_782)">
<mask id="path-5-outside-3_104_782" maskUnits="userSpaceOnUse" x="66" y="60" width="36" height="35" fill="black">
<rect fill="white" x="66" y="60" width="36" height="35"/>
<path d="M98.335 75.104H86.687V63.584H81.311V75.104H69.663V80.16H81.311V91.616H86.687V80.16H98.335V75.104Z"/>
</mask>
<path d="M98.335 75.104H86.687V63.584H81.311V75.104H69.663V80.16H81.311V91.616H86.687V80.16H98.335V75.104Z" fill="black" fill-opacity="0.13"/>
<path d="M98.335 75.104H101.335V72.104H98.335V75.104ZM86.687 75.104H83.687V78.104H86.687V75.104ZM86.687 63.584H89.687V60.584H86.687V63.584ZM81.311 63.584V60.584H78.311V63.584H81.311ZM81.311 75.104V78.104H84.311V75.104H81.311ZM69.663 75.104V72.104H66.663V75.104H69.663ZM69.663 80.16H66.663V83.16H69.663V80.16ZM81.311 80.16H84.311V77.16H81.311V80.16ZM81.311 91.616H78.311V94.616H81.311V91.616ZM86.687 91.616V94.616H89.687V91.616H86.687ZM86.687 80.16V77.16H83.687V80.16H86.687ZM98.335 80.16V83.16H101.335V80.16H98.335ZM98.335 72.104H86.687V78.104H98.335V72.104ZM89.687 75.104V63.584H83.687V75.104H89.687ZM86.687 60.584H81.311V66.584H86.687V60.584ZM78.311 63.584V75.104H84.311V63.584H78.311ZM81.311 72.104H69.663V78.104H81.311V72.104ZM66.663 75.104V80.16H72.663V75.104H66.663ZM69.663 83.16H81.311V77.16H69.663V83.16ZM78.311 80.16V91.616H84.311V80.16H78.311ZM81.311 94.616H86.687V88.616H81.311V94.616ZM89.687 91.616V80.16H83.687V91.616H89.687ZM86.687 83.16H98.335V77.16H86.687V83.16ZM101.335 80.16V75.104H95.335V80.16H101.335Z" fill="white" mask="url(#path-5-outside-3_104_782)"/>
</g>
<g opacity="0.4" filter="url(#filter2_f_104_782)">
<path d="M154.751 28.328H146.015V19.688H141.983V28.328H133.247V32.12H141.983V40.712H146.015V32.12H154.751V28.328Z" fill="white"/>
</g>
<defs>
<filter id="filter0_f_104_782" x="115.871" y="86.032" width="36.256" height="35.536" filterUnits="userSpaceOnUse" color-interpolation-filters="sRGB">
<feFlood flood-opacity="0" result="BackgroundImageFix"/>
<feBlend mode="normal" in="SourceGraphic" in2="BackgroundImageFix" result="shape"/>
<feGaussianBlur stdDeviation="1" result="effect1_foregroundBlur_104_782"/>
</filter>
<filter id="filter1_f_104_782" x="65.663" y="59.584" width="36.672" height="36.032" filterUnits="userSpaceOnUse" color-interpolation-filters="sRGB">
<feFlood flood-opacity="0" result="BackgroundImageFix"/>
<feBlend mode="normal" in="SourceGraphic" in2="BackgroundImageFix" result="shape"/>
<feGaussianBlur stdDeviation="2" result="effect1_foregroundBlur_104_782"/>
</filter>
<filter id="filter2_f_104_782" x="131.247" y="17.688" width="25.504" height="25.024" filterUnits="userSpaceOnUse" color-interpolation-filters="sRGB">
<feFlood flood-opacity="0" result="BackgroundImageFix"/>
<feBlend mode="normal" in="SourceGraphic" in2="BackgroundImageFix" result="shape"/>
<feGaussianBlur stdDeviation="1" result="effect1_foregroundBlur_104_782"/>
</filter>
</defs>
</svg>
